<?xml version="1.0" standalone="no"?>
<!DOCTYPE svg PUBLIC "-//W3C//DTD SVG 20010904//EN"
 "http://www.w3.org/TR/2001/REC-SVG-20010904/DTD/svg10.dtd">
<svg version="1.0" xmlns="http://www.w3.org/2000/svg"
 width="1207.000000pt" height="1082.000000pt" viewBox="0 0 1207.000000 1082.000000"
 preserveAspectRatio="xMidYMid meet">

<g transform="translate(0.000000,1082.000000) scale(0.100000,-0.100000)"
fill="#000000" stroke="none">
<path d="M5898 10536 c-194 -41 -363 -140 -475 -279 -28 -34 -95 -138 -148
-232 -54 -93 -184 -321 -290 -505 -203 -354 -446 -777 -703 -1225 -85 -148
-185 -322 -222 -385 -36 -63 -78 -135 -92 -160 -49 -88 -1197 -2090 -1491
-2600 -93 -162 -199 -347 -235 -410 -36 -63 -153 -268 -260 -455 -107 -187
-320 -558 -472 -825 -153 -267 -450 -786 -661 -1155 -474 -829 -505 -885 -529
-963 -143 -459 113 -925 575 -1048 68 -18 221 -19 5140 -19 l5070 0 84 22
c294 79 511 298 582 588 31 123 30 296 0 410 -30 113 -59 170 -311 610 -123
215 -242 424 -265 465 -23 41 -86 152 -140 245 -54 94 -216 377 -360 630 -145
253 -340 595 -435 760 -199 347 -1126 1966 -1755 3065 -237 415 -475 829 -527
920 -53 91 -128 221 -168 290 -286 495 -895 1556 -1009 1758 -99 177 -149 244
-244 323 -136 114 -304 178 -487 185 -66 2 -130 -2 -172 -10z m334 -231 c193
-66 232 -111 494 -570 116 -203 297 -518 401 -700 320 -556 493 -858 818
-1425 172 -300 469 -817 660 -1150 191 -333 596 -1039 900 -1570 304 -531 604
-1055 668 -1165 63 -110 279 -488 480 -840 201 -352 444 -777 539 -945 96
-168 213 -373 261 -457 92 -163 122 -241 132 -349 14 -149 -48 -336 -150 -451
-60 -69 -162 -135 -260 -170 l-80 -28 -5020 -3 c-5507 -2 -5105 -7 -5239 56
-164 78 -285 223 -331 397 -8 33 -15 100 -15 150 0 131 26 214 114 365 149
255 315 543 991 1725 868 1516 1305 2280 1498 2615 115 201 342 597 504 880
509 887 684 1192 738 1285 29 50 169 293 310 540 142 248 333 581 425 740 91
160 178 310 192 335 167 298 306 533 334 567 73 89 218 170 347 193 78 13 212
2 289 -25z"/>
<path d="M5977 9918 c-14 -13 -107 -167 -207 -343 -175 -305 -392 -686 -868
-1515 -118 -206 -357 -622 -530 -925 -173 -302 -358 -624 -410 -715 -185 -322
-678 -1182 -985 -1720 -102 -179 -323 -566 -492 -860 -169 -294 -407 -708
-528 -920 -121 -212 -291 -509 -377 -660 -471 -822 -682 -1196 -687 -1220 -6
-32 19 -85 46 -100 14 -7 1635 -10 5101 -10 l5082 0 29 29 c32 33 38 78 15
121 -40 76 -1072 1880 -1506 2635 -73 127 -297 518 -497 870 -742 1299 -1291
2259 -1768 3090 -98 171 -425 742 -727 1270 -302 528 -559 968 -571 977 -32
25 -90 23 -120 -4z m221 -550 c82 -145 254 -445 383 -668 128 -223 249 -434
269 -470 20 -36 108 -189 195 -340 87 -151 659 -1152 1272 -2224 613 -1072
1149 -2008 1191 -2080 90 -156 367 -640 427 -746 23 -41 185 -325 360 -630
175 -305 374 -654 443 -775 68 -121 135 -239 149 -263 l24 -42 -4871 0 c-2678
0 -4870 3 -4870 6 0 3 11 24 24 47 13 23 243 427 511 897 268 470 520 911 560
980 104 179 799 1391 895 1560 56 99 783 1368 865 1510 69 119 437 763 738
1290 77 135 246 430 375 655 130 226 255 444 278 485 47 85 80 142 183 320 92
158 330 570 389 673 24 42 48 77 52 77 4 0 75 -118 158 -262z"/>
<path d="M5995 9276 c-17 -7 -40 -32 -54 -57 -14 -24 -99 -172 -189 -329 -91
-157 -211 -366 -267 -465 -56 -99 -157 -277 -225 -395 -68 -118 -140 -244
-160 -280 -39 -70 -767 -1341 -920 -1605 -51 -88 -157 -275 -237 -415 -221
-387 -273 -478 -638 -1115 -186 -324 -415 -725 -510 -890 -94 -165 -252 -439
-350 -610 -291 -507 -512 -893 -677 -1185 -86 -151 -190 -333 -232 -405 -86
-147 -93 -177 -49 -225 l28 -30 4516 -1 c3449 -1 4522 2 4539 11 30 16 49 65
40 104 -7 30 -187 352 -612 1091 -107 187 -293 511 -413 720 -120 209 -297
517 -393 685 -96 168 -210 366 -252 440 -43 74 -124 216 -181 315 -56 99 -119
209 -139 245 -40 71 -278 487 -400 700 -43 74 -168 293 -277 485 -110 193
-352 616 -538 940 -186 325 -356 624 -380 665 -23 41 -157 275 -297 520 -140
245 -333 580 -427 745 -95 165 -182 310 -194 322 -28 29 -74 37 -112 19z m61
-313 c31 -50 1574 -2748 1694 -2963 20 -36 160 -281 312 -545 371 -647 664
-1159 943 -1645 314 -548 483 -843 597 -1040 278 -479 738 -1293 738 -1305 0
-3 -1935 -5 -4300 -5 -2526 0 -4300 4 -4300 9 0 9 86 164 237 426 44 77 183
320 308 540 241 424 324 569 477 835 53 91 156 271 230 400 75 129 168 291
208 360 39 69 207 361 373 650 165 289 442 773 615 1075 173 303 414 723 534
935 121 212 238 417 260 455 23 39 167 291 321 560 620 1086 729 1275 737
1275 3 0 10 -8 16 -17z"/>
<path d="M5998 7976 c-51 -27 -142 -103 -219 -182 -220 -228 -341 -534 -342
-859 0 -203 44 -387 136 -572 51 -101 144 -230 205 -285 47 -43 94 -50 137
-22 l25 16 0 -126 c0 -69 -4 -126 -8 -126 -4 0 -16 13 -25 30 -10 16 -54 68
-98 114 -220 233 -503 361 -839 382 -141 8 -293 -14 -326 -48 -58 -58 -68
-379 -18 -596 80 -344 315 -645 629 -804 181 -92 400 -143 585 -136 l100 3 0
-202 c0 -112 -3 -203 -7 -203 -5 0 -26 26 -48 56 -22 31 -79 94 -127 139 -157
149 -334 249 -535 301 -189 50 -525 43 -579 -11 -32 -33 -47 -120 -47 -290 0
-231 44 -416 145 -605 66 -125 93 -162 183 -258 135 -144 323 -264 508 -327
116 -38 303 -67 414 -63 l93 3 0 -202 c0 -112 -1 -203 -3 -203 -2 0 -32 36
-67 80 -103 131 -259 259 -407 334 -163 82 -323 118 -528 119 -168 1 -258 -13
-291 -44 -33 -31 -46 -111 -47 -284 -3 -507 264 -941 708 -1151 167 -79 408
-131 563 -122 l72 5 0 -109 c0 -128 12 -160 64 -178 43 -14 77 -5 108 27 21
22 23 35 26 141 l4 117 116 2 c190 2 370 47 547 136 328 164 546 443 642 824
26 100 28 122 28 313 0 185 -2 209 -20 245 -11 22 -32 46 -47 53 -16 7 -80 18
-143 25 -272 27 -587 -55 -803 -210 -87 -62 -203 -173 -260 -248 -25 -33 -49
-64 -54 -70 -4 -5 -8 83 -8 195 l0 205 133 0 c523 2 977 336 1143 843 53 163
66 262 62 453 -7 262 -11 267 -223 288 -144 14 -310 -4 -463 -50 -98 -30 -277
-121 -352 -178 -66 -50 -223 -206 -272 -271 l-27 -35 -1 208 0 208 23 -8 c34
-12 189 -5 296 13 520 87 913 483 1006 1015 17 96 20 334 5 424 -15 93 -38
109 -186 125 -303 34 -631 -58 -874 -245 -56 -44 -180 -169 -237 -240 l-32
-40 0 129 c-1 124 0 129 17 113 27 -25 81 -21 124 8 20 13 66 64 102 112 333
442 342 1040 21 1488 -91 128 -231 262 -322 309 -39 20 -50 20 -85 2z m130
-293 c134 -135 232 -305 284 -496 20 -71 23 -105 22 -252 -1 -149 -4 -182 -26
-266 -43 -157 -159 -364 -242 -430 l-26 -20 0 411 c0 464 1 460 -70 481 -31 9
-46 9 -70 -1 -60 -25 -60 -27 -60 -487 l0 -417 -45 44 c-134 132 -229 350
-256 585 -27 238 42 494 191 710 51 73 190 215 211 215 5 0 45 -35 87 -77z
m-1024 -1554 c87 -16 201 -56 292 -101 100 -50 242 -163 301 -238 96 -121 117
-140 155 -140 21 0 46 9 62 21 l26 20 0 -370 0 -371 -49 0 c-77 0 -268 27
-350 50 -346 96 -628 383 -718 730 -20 74 -26 129 -30 252 l-5 157 38 4 c54 7
210 -1 278 -14z m2160 11 c25 -9 26 -12 26 -102 0 -634 -459 -1084 -1107
-1088 l-43 0 0 366 0 365 22 -15 c12 -9 38 -16 56 -16 37 0 61 21 157 136 190
229 470 356 797 363 37 0 78 -3 92 -9z m-2176 -1461 c249 -35 525 -205 657
-405 21 -32 46 -64 54 -71 23 -18 87 -16 116 3 l25 16 0 -364 0 -364 -92 3
c-126 5 -208 18 -314 48 -292 85 -530 291 -648 562 -70 160 -89 252 -90 428
l-1 150 50 6 c56 7 134 3 243 -12z m2198 -35 c8 -58 -3 -216 -22 -314 -18 -89
-73 -231 -121 -315 -138 -238 -361 -407 -635 -480 -76 -20 -258 -43 -355 -45
-10 0 -13 80 -13 366 l0 365 22 -15 c12 -9 38 -16 56 -16 38 0 60 19 154 137
77 97 183 183 298 242 170 87 296 119 482 120 l127 1 7 -46z m-2227 -1414
c221 -28 450 -145 602 -308 38 -41 81 -95 96 -119 38 -66 104 -92 149 -58 10
8 22 15 27 15 4 0 7 -167 7 -371 0 -348 -1 -370 -17 -365 -10 2 -65 7 -123 11
-410 26 -729 235 -902 590 -72 148 -99 266 -105 452 l-5 151 28 5 c57 8 161 7
243 -3z m2221 -16 c21 -53 5 -256 -31 -399 -26 -106 -124 -303 -193 -390 -112
-140 -273 -255 -447 -320 -117 -44 -172 -55 -336 -69 l-133 -12 0 367 0 368
28 -15 c55 -28 105 -8 153 64 83 121 234 250 374 320 154 77 290 109 473 111
101 1 103 1 112 -25z"/>
</g>
</svg>
