<svg xmlns="http://www.w3.org/2000/svg" viewBox="0 0 760 760" fill="none">
  <path d="M562 80c112 69 164 202 136 329-31 138-150 241-292 255-131 13-263-54-326-168-59-108-35-245 47-336C226 49 442 5 562 80Z" fill="#E5F8EC"/>
  <path d="M514 134c83 54 125 151 103 244-24 104-113 182-221 192-100 10-202-41-250-127-45-81-25-185 38-253 75-82 239-113 330-56Z" fill="#C7F0D6" opacity=".76"/>
  <path d="M598 250c57 50 78 132 51 203-29 76-104 125-186 122-76-2-147-51-177-120-28-65-9-141 43-189 62-57 206-72 269-16Z" fill="#9BDBB6" opacity=".36"/>
</svg>
