<svg xmlns="http://www.w3.org/2000/svg" viewBox="0 0 1200 280" fill="none">
  <path d="M-40 194C118 54 252 55 392 145s263 101 404 12 296-84 444 30" stroke="#CDEEDC" stroke-width="2.4" stroke-linecap="round"/>
  <path d="M-26 224C140 92 270 91 410 170s264 89 398 5 294-74 430 42" stroke="#9BDBB6" stroke-width="1.6" stroke-linecap="round" opacity=".62"/>
  <path d="M-70 132C94 20 246 20 394 108s280 87 430-8 288-87 426 10" stroke="#E0F6EA" stroke-width="3" stroke-linecap="round"/>
  <path d="M44 70c62-28 122-33 180-15M850 66c82-50 174-56 276-18" stroke="#77C994" stroke-width="1.8" stroke-linecap="round" opacity=".55"/>
</svg>
