<svg xmlns="http://www.w3.org/2000/svg" viewBox="0 0 900 620" fill="none">
  <path d="M610 70c88 26 160 101 166 195 7 102-58 204-149 248-85 40-185 15-262-24-82-42-156-105-164-197-8-96 45-194 129-242 82-47 189-8 280 20Z" fill="#DFF7E8" opacity=".9"/>
  <path d="M220 244c65-34 153-20 199 38 46 57 29 145-25 194-51 46-134 48-193 14-65-38-98-114-73-180 14-37 48-51 92-66Z" fill="#AEE7C4" opacity=".42"/>
  <path d="M703 384c40 18 70 58 65 102-6 46-49 82-94 87-44 5-85-23-107-60-22-36-23-84 4-116 30-35 88-31 132-13Z" fill="#F0FBF4"/>
</svg>
