<svg xmlns="http://www.w3.org/2000/svg" viewBox="0 0 360 640" fill="none">
  <rect x="18" y="18" width="324" height="604" rx="34" fill="#F8FBF8" stroke="#DDE8E1" stroke-width="3"/>
  <text x="44" y="74" fill="#20302A" font-family="Inter,Arial,sans-serif" font-size="23" font-weight="700">Result</text>
  <rect x="44" y="112" width="272" height="230" rx="28" fill="#FFF6D8"/>
  <path d="M174 161a7 7 0 0 1 12 0l45 78a7 7 0 0 1-6 10h-90a7 7 0 0 1-6-10l45-78Z" fill="#FFFFFF" stroke="#DDAE3B" stroke-width="5"/>
  <path d="M180 190v24M180 230h.1" stroke="#20302A" stroke-width="8" stroke-linecap="round"/>
  <text x="93" y="285" fill="#20302A" font-family="Inter,Arial,sans-serif" font-size="23" font-weight="800">Gluten risk</text>
  <text x="90" y="310" fill="#5B6A63" font-family="Inter,Arial,sans-serif" font-size="13">Review highlighted ingredients</text>
  <rect x="44" y="376" width="272" height="64" rx="17" fill="#FFFFFF" stroke="#DDE8E1"/>
  <rect x="44" y="458" width="272" height="64" rx="17" fill="#FFFFFF" stroke="#DDE8E1"/>
  <path d="M74 406h156M74 488h118" stroke="#20302A" stroke-width="5" stroke-linecap="round" opacity=".68"/>
  <rect x="230" y="394" width="58" height="28" rx="14" fill="#FFF6D8"/>
  <rect x="230" y="476" width="58" height="28" rx="14" fill="#E5F8EC"/>
  <rect x="44" y="540" width="272" height="42" rx="21" fill="#20302A"/>
</svg>
